/vscmnt/brussel_pixiu_data/_data_brussel/112/vsc11236/PredSimResults/SUBJ04opt3D/worker_04.mot
version=1
nRows=5
nColumns=50
inDegrees=yes
endheader
                time	         pelvis_tilt	         pelvis_list	     pelvis_rotation	           pelvis_tx	           pelvis_ty	           pelvis_tz	       hip_flexion_r	     hip_adduction_r	      hip_rotation_r	        knee_angle_r	       ankle_angle_r	         mtp_angle_r	       hip_flexion_l	     hip_adduction_l	      hip_rotation_l	        knee_angle_l	       ankle_angle_l	         mtp_angle_l	    lumbar_extension	      lumbar_bending	     lumbar_rotation	 ercspn_r/activation	 intobl_r/activation	 extobl_r/activation	    abd_r/activation	    add_r/activation	hamstrings_r/activation	bifemsh_r/activation	glut_max_r/activation	iliopsoas_r/activation	rect_fem_r/activation	  vasti_r/activation	gastroc_r/activation	 soleus_r/activation	tib_ant_r/activation	 ercspn_l/activation	 intobl_l/activation	 extobl_l/activation	    abd_l/activation	    add_l/activation	hamstrings_l/activation	bifemsh_l/activation	glut_max_l/activation	iliopsoas_l/activation	rect_fem_l/activation	  vasti_l/activation	gastroc_l/activation	 soleus_l/activation	tib_ant_l/activation	
          0.00000000	         -1.97685451	          0.56458424	          8.80205545	          0.00000000	          0.88362922	         -0.01223622	         29.06873858	         -3.76481687	        -10.64680264	        -11.54935448	          3.94347012	          0.23012222	        -11.98139345	         -0.30547289	         -8.09709042	         -7.74484274	         13.01400547	         19.73590848	        -13.96546984	         -3.88166625	         -7.49643883	          0.03907352	          0.22268625	          0.02072962	          0.01222254	          0.25037407	          0.06340933	          0.01105045	          0.01490619	          0.17212030	          0.03882549	          0.03725727	          0.01000013	          0.01000005	          0.32665761	          0.01830780	          0.01000004	          0.01000005	          0.06307548	          0.01000079	          0.02849962	          0.18560136	          0.01768985	          0.01825498	          0.01000281	          0.01000018	          0.23895969	          0.24102295	          0.01000008	
          0.01333696	         -2.08425283	          0.57722801	          8.57888460	          0.01514605	          0.88143684	         -0.01177234	         28.90418776	         -3.62311233	        -10.88969934	        -12.67996550	          3.75533482	          0.22516785	        -12.67023112	         -0.40101524	         -8.75953321	         -8.18776906	         12.72289825	         21.13598962	        -13.48461125	         -3.33087904	         -7.59875418	          0.03196774	          0.22201272	          0.01695977	          0.01000003	          0.25929601	          0.06603583	          0.01931355	          0.03281185	          0.14081874	          0.03176476	          0.03048186	          0.01825869	          0.01901060	          0.32899483	          0.02997354	          0.01000008	          0.01000016	          0.05160467	          0.01000224	          0.02334612	          0.15184827	          0.01452825	          0.01493531	          0.01000022	          0.01000061	          0.21835641	          0.24000643	          0.01000002	
          0.02667393	         -2.17712598	          0.53113252	          8.31217941	          0.03068077	          0.87939226	         -0.01125112	         28.63630585	         -3.47343936	        -11.02751855	        -13.77770483	          3.43699174	          0.22245551	        -13.31288427	         -0.56525239	         -9.45239503	         -8.78055910	         12.36161285	         22.56398357	        -12.96738709	         -2.69028367	         -7.67590902	          0.02615455	          0.20914317	          0.01387550	          0.03111209	          0.22080222	          0.06508956	          0.01580334	          0.02684504	          0.11520964	          0.02598809	          0.05284446	          0.01493824	          0.01555338	          0.35752638	          0.03227556	          0.01000002	          0.01000009	          0.04221993	          0.01000043	          0.01910141	          0.12423344	          0.01188620	          0.01222356	          0.01000063	          0.01000019	          0.17864649	          0.22839572	          0.01000003	
          0.04001089	         -2.25610996	          0.44671283	          7.99038665	          0.04640808	          0.87768172	         -0.01061998	         28.34436626	         -3.30218613	        -11.24647739	        -14.81497545	          3.00309708	          0.20434081	        -13.84061018	         -0.78497680	        -10.18338855	         -9.62469627	         11.89116744	         24.02033130	        -12.44506754	         -1.98859265	         -7.72068690	          0.02838017	          0.17110869	          0.01135215	          0.04700714	          0.21421674	          0.06702156	          0.01293089	          0.02196325	          0.09425778	          0.02126195	          0.11879467	          0.01222169	          0.01272489	          0.38398355	          0.04329189	          0.01000002	          0.01000008	          0.03454188	          0.01000053	          0.01563010	          0.10164058	          0.01000020	          0.01000261	          0.01000060	          0.01000047	          0.14615810	          0.21437928	          0.01000002	
          0.05334786	         -2.32155744	          0.32430890	          7.62286732	          0.06221761	          0.87648524	         -0.00986942	         27.99923709	         -3.09982840	        -11.56409420	        -15.79413885	          2.69553358	          0.18266157	        -14.18857382	         -1.07508717	        -10.94362647	        -10.81439375	         11.26321472	         25.52318753	        -11.93275046	         -1.23224401	         -7.73219018	          0.03282734	          0.13999110	          0.01000008	          0.07556458	          0.18585501	          0.06711218	          0.01058204	          0.01797977	          0.07711619	          0.01739531	          0.17522061	          0.01000033	          0.01041082	          0.39519584	          0.05780907	          0.01000002	          0.01000007	          0.02826014	          0.01000047	          0.01279657	          0.08315641	          0.01000026	          0.01000116	          0.01000060	          0.01000061	          0.11957799	          0.18396920	          0.01000002	
